<svg xmlns="http://www.w3.org/2000/svg" width="44" height="44" viewBox="0 0 44 44">
  <defs>
    <style>
      .cls-1 {
        fill: #bfc5c9;
        fill-rule: evenodd;
      }
    </style>
  </defs>
  <path id="down.svg" class="cls-1" d="M104.007,606a22.005,22.005,0,1,1-22.005-22A22.03,22.03,0,0,1,104.007,606Zm-42.518,0A20.513,20.513,0,1,0,82,585.485,20.537,20.537,0,0,0,61.489,606Zm28.238-2.534a0.741,0.741,0,0,1-.218.528l-7.3,7.29a0.748,0.748,0,0,1-1.055,0l-7.3-7.29a0.746,0.746,0,0,1,1.055-1.055l6.768,6.762,6.77-6.764A0.745,0.745,0,0,1,89.727,603.463Z" transform="translate(-60 -584)"/>
</svg>
