<svg xmlns="http://www.w3.org/2000/svg" width="44" height="44" viewBox="0 0 44 44">
  <defs>
    <style>
      .cls-1 {
        fill: #bfc5c9;
        fill-rule: evenodd;
      }
    </style>
  </defs>
  <path id="up.svg" class="cls-1" d="M159.007,606a22,22,0,1,1-22-22A22.03,22.03,0,0,1,159.007,606Zm-42.518,0A20.513,20.513,0,1,0,137,585.485,20.537,20.537,0,0,0,116.489,606Zm28.239,2.763a0.747,0.747,0,0,1-1.275.528l-6.768-6.761-6.768,6.761a0.747,0.747,0,0,1-1.056-1.056l7.3-7.287a0.744,0.744,0,0,1,1.056,0l7.3,7.287A0.741,0.741,0,0,1,144.728,608.761Z" transform="translate(-115 -584)"/>
</svg>
